# xmcd
#
# Track frame offsets: 
#        183
#        4995
#        34563
#        57918
#        79998
#        82213
#        98270
#        127200
#        140208
#        165238
#        188120
#        204973
#        226475
#        230548
#
# Disc length: 3474 seconds
#
# Revision: 16
# Processed by: cddbd v1.5.2PL0 Copyright (c) Steve Scherf et al.
# Submitted via: ExactAudioCopyFreeDBPlugin 1.0
#
DISCID=b60d900e
DTITLE=Quincy Jones - Back on the Block
DYEAR=1989
DGENRE=Soul
TTITLE0=Prologue (2 Q's Rap)
TTITLE1=Back on he Block
TTITLE2=I Don't Go For That
TTITLE3=I'll Be Good To You
TTITLE4=The Verb To Be
TTITLE5=Wee B. Dooinit
TTITLE6=The Places You Find Love
TTITLE7=Jazz Corner Of The World
TTITLE8=Birdland
TTITLE9=Setembro (Brazilian Wedding Song)
TTITLE10=One Man Woman
TTITLE11=Tomorrow (A Better You, Better Me)
TTITLE12=Prelude To The Garden
TTITLE13=The Secret Garden (Sweet Seduction Suite)
EXTD=
EXTT0=
EXTT1=
EXTT2=
EXTT3=
EXTT4=
EXTT5=
EXTT6=
EXTT7=
EXTT8=
EXTT9=
EXTT10=
EXTT11=
EXTT12=
EXTT13=
PLAYORDER=
